<?xml version="1.0" encoding="UTF-8"?>

<svg version="1.1" id="Layer_1" xmlns="http://www.w3.org/2000/svg" xmlns:xlink="http://www.w3.org/1999/xlink" x="0px" y="0px"
     viewBox="0 0 16 16" style="enable-background:new 0 0 16 16;" xml:space="preserve">
    <path d="M15.8596491,14.6245614 L12.0732943,10.8382066 C12.0015595,10.7664717 11.9079922,10.7290448 11.8081871,10.7290448 L11.3964912,10.7290448 C12.3789474,9.59064327 12.9746589,8.10916179 12.9746589,6.48732943 C12.9746589,2.9037037 10.0709552,0 6.48732943,0 C2.9037037,0 0,2.9037037 0,6.48732943 C0,10.0709552 2.9037037,12.9746589 6.48732943,12.9746589 C8.10916179,12.9746589 9.59064327,12.3789474 10.7290448,11.3964912 L10.7290448,11.8081871 C10.7290448,11.9079922 10.7695906,12.0015595 10.8382066,12.0732943 L14.6245614,15.8596491 C14.7711501,16.0062378 15.0081871,16.0062378 15.1547758,15.8596491 L15.8596491,15.1547758 C16.0062378,15.0081871 16.0062378,14.7711501 15.8596491,14.6245614 Z M6.48732943,11.4775828 C3.73021442,11.4775828 1.49707602,9.24444444 1.49707602,6.48732943 C1.49707602,3.73021442 3.73021442,1.49707602 6.48732943,1.49707602 C9.24444444,1.49707602 11.4775828,3.73021442 11.4775828,6.48732943 C11.4775828,9.24444444 9.24444444,11.4775828 6.48732943,11.4775828 Z"/>
</svg>
